<?xml version="1.0" encoding="UTF-8" standalone="no"?>
<!-- Generator: Adobe Illustrator 16.0.0, SVG Export Plug-In . SVG Version: 6.00 Build 0)  -->

<svg
   xmlns:dc="http://purl.org/dc/elements/1.1/"
   xmlns:cc="http://creativecommons.org/ns#"
   xmlns:rdf="http://www.w3.org/1999/02/22-rdf-syntax-ns#"
   xmlns:svg="http://www.w3.org/2000/svg"
   xmlns="http://www.w3.org/2000/svg"
   xmlns:sodipodi="http://sodipodi.sourceforge.net/DTD/sodipodi-0.dtd"
   xmlns:inkscape="http://www.inkscape.org/namespaces/inkscape"
   version="1.1"
   x="0px"
   y="0px"
   width="453"
   height="687.4375"
   viewBox="0 0 453 687.4375"
   enable-background="new 0 0 1024 1024"
   xml:space="preserve"
   id="svg2"
   inkscape:version="0.48.5 r10040"
   sodipodi:docname="umss_pentagono_sin_fondo_SVG.svg"><metadata
     id="metadata145"><rdf:RDF><cc:Work
         rdf:about=""><dc:format>image/svg+xml</dc:format><dc:type
           rdf:resource="http://purl.org/dc/dcmitype/StillImage" /></cc:Work></rdf:RDF></metadata><defs
     id="defs143" /><sodipodi:namedview
     pagecolor="#ffffff"
     bordercolor="#666666"
     borderopacity="1"
     objecttolerance="10"
     gridtolerance="10"
     guidetolerance="10"
     inkscape:pageopacity="0"
     inkscape:pageshadow="2"
     inkscape:window-width="681"
     inkscape:window-height="748"
     id="namedview141"
     showgrid="false"
     fit-margin-top="0"
     fit-margin-left="0"
     fit-margin-right="0"
     fit-margin-bottom="0"
     inkscape:zoom="0.23046875"
     inkscape:cx="226.5"
     inkscape:cy="347"
     inkscape:window-x="0"
     inkscape:window-y="18"
     inkscape:window-maximized="0"
     inkscape:current-layer="svg2" /><g
     id="Capa_8"
     transform="translate(-285.5,-171.5625)"><g
       id="g5"><polygon
         points="734.357,174.571 511.998,849.429 289.643,174.571 "
         id="polygon7"
         style="fill:#ffffff" /></g><g
       id="g9"><polygon
         points="512,320.155 733.507,175.595 654.12,418.09 "
         id="polygon11"
         style="fill:#c12e36" /><polygon
         points="512,320.155 289.642,175.039 369.878,418.091 "
         id="polygon13"
         style="fill:#c12e36" /><polygon
         stroke-miterlimit="10"
         points="734.358,174.571 511.998,849.429 289.642,174.571 "
         id="polygon15"
         style="fill:none;stroke:#352566;stroke-width:6;stroke-miterlimit:10" /><g
         id="g17"><polygon
           points="476.698,425.249 490.164,383.804 533.741,383.804 547.208,425.249 511.953,450.863 "
           id="polygon19"
           style="fill:#38286b" /><g
           id="g21"><g
             id="g23"><line
               stroke-miterlimit="10"
               x1="545.20801"
               y1="425.24899"
               x2="477.827"
               y2="594.24902"
               id="line25"
               style="fill:none;stroke:#352566;stroke-width:4;stroke-miterlimit:10" /><g
               id="g27"><polygon
                 points="473.111,587.25 469.952,614 486.065,592.414 "
                 id="polygon29"
                 style="fill:#352566" /></g></g></g><g
           id="g31"><g
             id="g33"><line
               stroke-miterlimit="10"
               x1="478.698"
               y1="425.26801"
               x2="546.16302"
               y2="594.23401"
               id="line35"
               style="fill:none;stroke:#352566;stroke-width:4;stroke-miterlimit:10" /><g
               id="g37"><polygon
                 points="537.925,592.404 554.048,613.981 550.876,587.232 "
                 id="polygon39"
                 style="fill:#352566" /></g></g></g><g
           id="g41"><g
             id="g43"><line
               stroke-miterlimit="10"
               x1="511.953"
               y1="449.86301"
               x2="511.953"
               y2="706.737"
               id="line45"
               style="fill:none;stroke:#352566;stroke-width:4;stroke-miterlimit:10" /><g
               id="g47"><polygon
                 points="504.98,701.982 511.953,728 518.926,701.982 "
                 id="polygon49"
                 style="fill:#352566" /></g></g></g><polygon
           points="524.048,410.286 519.046,425.68 502.858,425.68 497.856,410.286 510.952,400.771 "
           id="polygon51"
           style="fill:#ffffff" /><polygon
           points="547.224,425.252 522.853,428.794 511.953,450.878 501.054,428.794 476.682,425.252 494.318,408.062 490.154,383.789 511.953,395.248 533.753,383.789 529.587,408.062 "
           id="polygon53"
           style="fill:#0f5a96" /><polygon
           points="529.618,408.048 522.882,428.781 501.082,428.781 494.346,408.048 511.981,395.234 "
           id="polygon55"
           style="fill:#ffffff" /></g><g
         id="g57"><path
           d="m 429.912,191.25 h 13.957 v 26.971 c 0,2.675 -0.417,5.2 -1.25,7.576 -0.833,2.376 -2.141,4.454 -3.922,6.233 -1.781,1.779 -3.649,3.029 -5.604,3.749 -2.717,1.008 -5.98,1.512 -9.789,1.512 -2.203,0 -4.606,-0.154 -7.21,-0.463 -2.604,-0.309 -4.781,-0.92 -6.531,-1.836 -1.75,-0.915 -3.351,-2.217 -4.802,-3.903 -1.451,-1.686 -2.445,-3.425 -2.98,-5.215 -0.864,-2.88 -1.297,-5.432 -1.297,-7.653 V 191.25 h 13.958 v 27.613 c 0,2.469 0.684,4.396 2.054,5.785 1.369,1.389 3.268,2.082 5.697,2.082 2.409,0 4.297,-0.684 5.667,-2.052 1.369,-1.367 2.054,-3.306 2.054,-5.815 V 191.25 z"
           id="path59"
           inkscape:connector-curvature="0"
           style="fill:#38286b" /></g><g
         id="g61"><path
           d="m 461.368,191.636 h 18.396 l 7.095,27.544 7.044,-27.544 h 18.385 v 45.269 h -11.456 v -34.523 l -8.827,34.523 h -10.37 l -8.811,-34.523 v 34.523 h -11.456 v -45.269 z"
           id="path63"
           inkscape:connector-curvature="0"
           style="fill:#38286b" /></g><g
         id="g65"><path
           d="m 529.666,221.929 13.31,-0.833 c 0.288,2.162 0.874,3.809 1.76,4.94 1.44,1.833 3.499,2.749 6.176,2.749 1.996,0 3.536,-0.468 4.616,-1.405 1.081,-0.937 1.621,-2.022 1.621,-3.258 0,-1.173 -0.515,-2.223 -1.544,-3.149 -1.029,-0.926 -3.417,-1.801 -7.164,-2.625 -6.135,-1.379 -10.509,-3.211 -13.123,-5.496 -2.636,-2.285 -3.953,-5.198 -3.953,-8.739 0,-2.326 0.675,-4.524 2.023,-6.593 1.348,-2.069 3.376,-3.695 6.083,-4.879 2.706,-1.184 6.417,-1.776 11.132,-1.776 5.784,0 10.194,1.076 13.231,3.227 3.036,2.151 4.843,5.574 5.419,10.267 l -13.185,0.772 c -0.351,-2.038 -1.087,-3.521 -2.208,-4.447 -1.122,-0.926 -2.671,-1.39 -4.647,-1.39 -1.627,0 -2.852,0.345 -3.675,1.035 -0.823,0.69 -1.235,1.528 -1.235,2.517 0,0.721 0.34,1.369 1.02,1.945 0.658,0.597 2.223,1.153 4.693,1.667 6.114,1.317 10.493,2.651 13.139,3.999 2.646,1.348 4.57,3.021 5.774,5.018 1.205,1.997 1.807,4.23 1.807,6.701 0,2.903 -0.803,5.579 -2.408,8.029 -1.605,2.45 -3.85,4.308 -6.731,5.574 -2.883,1.266 -6.516,1.899 -10.9,1.899 -7.7,0 -13.031,-1.482 -15.996,-4.447 -2.966,-2.965 -4.644,-6.732 -5.035,-11.302 z"
           id="path67"
           inkscape:connector-curvature="0"
           style="fill:#38286b" /></g><g
         id="g69"><path
           d="m 586.24,221.929 13.31,-0.833 c 0.288,2.162 0.874,3.809 1.76,4.94 1.44,1.833 3.499,2.749 6.176,2.749 1.996,0 3.536,-0.468 4.616,-1.405 1.081,-0.937 1.621,-2.022 1.621,-3.258 0,-1.173 -0.515,-2.223 -1.544,-3.149 -1.029,-0.926 -3.417,-1.801 -7.164,-2.625 -6.135,-1.379 -10.509,-3.211 -13.123,-5.496 -2.636,-2.285 -3.953,-5.198 -3.953,-8.739 0,-2.326 0.675,-4.524 2.023,-6.593 1.348,-2.069 3.376,-3.695 6.083,-4.879 2.706,-1.184 6.417,-1.776 11.132,-1.776 5.784,0 10.194,1.076 13.231,3.227 3.036,2.151 4.843,5.574 5.419,10.267 l -13.185,0.772 c -0.351,-2.038 -1.087,-3.521 -2.208,-4.447 -1.122,-0.926 -2.671,-1.39 -4.647,-1.39 -1.627,0 -2.852,0.345 -3.675,1.035 -0.823,0.69 -1.235,1.528 -1.235,2.517 0,0.721 0.34,1.369 1.02,1.945 0.658,0.597 2.223,1.153 4.693,1.667 6.114,1.317 10.493,2.651 13.139,3.999 2.646,1.348 4.57,3.021 5.774,5.018 1.205,1.997 1.807,4.23 1.807,6.701 0,2.903 -0.803,5.579 -2.408,8.029 -1.605,2.45 -3.85,4.308 -6.731,5.574 -2.883,1.266 -6.516,1.899 -10.9,1.899 -7.7,0 -13.031,-1.482 -15.996,-4.447 -2.965,-2.965 -4.644,-6.732 -5.035,-11.302 z"
           id="path71"
           inkscape:connector-curvature="0"
           style="fill:#38286b" /></g></g></g><g
     id="Capa_8_copia"
     transform="translate(-285.5,-171.5625)"><g
       id="g74"><polygon
         points="734.357,174.571 511.998,849.429 289.643,174.571 "
         id="polygon76"
         style="fill:#ffffff" /></g><g
       id="g78"><polygon
         points="512,320.155 733.507,175.595 654.12,418.09 "
         id="polygon80"
         style="fill:#c12e36" /><polygon
         points="512,320.155 289.642,175.039 369.878,418.091 "
         id="polygon82"
         style="fill:#c12e36" /><polygon
         stroke-miterlimit="10"
         points="734.358,174.571 511.998,849.429 289.642,174.571 "
         id="polygon84"
         style="fill:none;stroke:#352566;stroke-width:6;stroke-miterlimit:10" /><g
         id="g86"><polygon
           stroke-miterlimit="10"
           points="476.698,425.249 490.164,383.804 533.741,383.804 547.208,425.249 511.953,450.863 "
           id="polygon88"
           style="fill:none;stroke:#352566;stroke-width:4;stroke-miterlimit:10" /><g
           id="g90"><g
             id="g92"><line
               stroke-miterlimit="10"
               x1="547.703"
               y1="425.24899"
               x2="477.95599"
               y2="596.914"
               id="line94"
               style="fill:none;stroke:#352566;stroke-width:4;stroke-miterlimit:10" /><g
               id="g96"><polygon
                 points="473.286,589.885 469.952,616.613 486.206,595.133 "
                 id="polygon98"
                 style="fill:#352566" /></g></g></g><g
           id="g100"><g
             id="g102"><line
               stroke-miterlimit="10"
               x1="476.095"
               y1="425.24899"
               x2="546.02301"
               y2="596.84003"
               id="line104"
               style="fill:none;stroke:#352566;stroke-width:4;stroke-miterlimit:10" /><g
               id="g106"><polygon
                 points="537.771,595.067 554.049,616.53 550.686,589.805 "
                 id="polygon108"
                 style="fill:#352566" /></g></g></g><g
           id="g110"><g
             id="g112"><line
               stroke-miterlimit="10"
               x1="512"
               y1="450.26999"
               x2="512"
               y2="711.737"
               id="line114"
               style="fill:none;stroke:#352566;stroke-width:4;stroke-miterlimit:10" /><g
               id="g116"><polygon
                 points="505.027,706.982 512,733 518.973,706.982 "
                 id="polygon118"
                 style="fill:#352566" /></g></g></g><g
           id="g120"><polygon
             stroke-miterlimit="10"
             points="530.082,388.945 512,444.602 493.916,388.945 541.26,423.343 482.74,423.343 "
             id="polygon122"
             style="fill:none;stroke:#352566;stroke-width:4;stroke-miterlimit:10" /></g></g><g
         id="g124"><path
           d="m 429.912,191.25 h 13.957 v 26.971 c 0,2.675 -0.417,5.2 -1.25,7.576 -0.833,2.376 -2.141,4.454 -3.922,6.233 -1.781,1.779 -3.649,3.029 -5.604,3.749 -2.717,1.008 -5.98,1.512 -9.789,1.512 -2.203,0 -4.606,-0.154 -7.21,-0.463 -2.604,-0.309 -4.781,-0.92 -6.531,-1.836 -1.75,-0.915 -3.351,-2.217 -4.802,-3.903 -1.451,-1.686 -2.445,-3.425 -2.98,-5.215 -0.864,-2.88 -1.297,-5.432 -1.297,-7.653 V 191.25 h 13.958 v 27.613 c 0,2.469 0.684,4.396 2.054,5.785 1.369,1.389 3.268,2.082 5.697,2.082 2.409,0 4.297,-0.684 5.667,-2.052 1.369,-1.367 2.054,-3.306 2.054,-5.815 V 191.25 z"
           id="path126"
           inkscape:connector-curvature="0"
           style="fill:#38286b" /></g><g
         id="g128"><path
           d="m 461.368,191.636 h 18.396 l 7.095,27.544 7.044,-27.544 h 18.385 v 45.269 h -11.456 v -34.523 l -8.827,34.523 h -10.37 l -8.811,-34.523 v 34.523 h -11.456 v -45.269 z"
           id="path130"
           inkscape:connector-curvature="0"
           style="fill:#38286b" /></g><g
         id="g132"><path
           d="m 529.666,221.929 13.31,-0.833 c 0.288,2.162 0.874,3.809 1.76,4.94 1.44,1.833 3.499,2.749 6.176,2.749 1.996,0 3.536,-0.468 4.616,-1.405 1.081,-0.937 1.621,-2.022 1.621,-3.258 0,-1.173 -0.515,-2.223 -1.544,-3.149 -1.029,-0.926 -3.417,-1.801 -7.164,-2.625 -6.135,-1.379 -10.509,-3.211 -13.123,-5.496 -2.636,-2.285 -3.953,-5.198 -3.953,-8.739 0,-2.326 0.675,-4.524 2.023,-6.593 1.348,-2.069 3.376,-3.695 6.083,-4.879 2.706,-1.184 6.417,-1.776 11.132,-1.776 5.784,0 10.194,1.076 13.231,3.227 3.036,2.151 4.843,5.574 5.419,10.267 l -13.185,0.772 c -0.351,-2.038 -1.087,-3.521 -2.208,-4.447 -1.122,-0.926 -2.671,-1.39 -4.647,-1.39 -1.627,0 -2.852,0.345 -3.675,1.035 -0.823,0.69 -1.235,1.528 -1.235,2.517 0,0.721 0.34,1.369 1.02,1.945 0.658,0.597 2.223,1.153 4.693,1.667 6.114,1.317 10.493,2.651 13.139,3.999 2.646,1.348 4.57,3.021 5.774,5.018 1.205,1.997 1.807,4.23 1.807,6.701 0,2.903 -0.803,5.579 -2.408,8.029 -1.605,2.45 -3.85,4.308 -6.731,5.574 -2.883,1.266 -6.516,1.899 -10.9,1.899 -7.7,0 -13.031,-1.482 -15.996,-4.447 -2.966,-2.965 -4.644,-6.732 -5.035,-11.302 z"
           id="path134"
           inkscape:connector-curvature="0"
           style="fill:#38286b" /></g><g
         id="g136"><path
           d="m 586.24,221.929 13.31,-0.833 c 0.288,2.162 0.874,3.809 1.76,4.94 1.44,1.833 3.499,2.749 6.176,2.749 1.996,0 3.536,-0.468 4.616,-1.405 1.081,-0.937 1.621,-2.022 1.621,-3.258 0,-1.173 -0.515,-2.223 -1.544,-3.149 -1.029,-0.926 -3.417,-1.801 -7.164,-2.625 -6.135,-1.379 -10.509,-3.211 -13.123,-5.496 -2.636,-2.285 -3.953,-5.198 -3.953,-8.739 0,-2.326 0.675,-4.524 2.023,-6.593 1.348,-2.069 3.376,-3.695 6.083,-4.879 2.706,-1.184 6.417,-1.776 11.132,-1.776 5.784,0 10.194,1.076 13.231,3.227 3.036,2.151 4.843,5.574 5.419,10.267 l -13.185,0.772 c -0.351,-2.038 -1.087,-3.521 -2.208,-4.447 -1.122,-0.926 -2.671,-1.39 -4.647,-1.39 -1.627,0 -2.852,0.345 -3.675,1.035 -0.823,0.69 -1.235,1.528 -1.235,2.517 0,0.721 0.34,1.369 1.02,1.945 0.658,0.597 2.223,1.153 4.693,1.667 6.114,1.317 10.493,2.651 13.139,3.999 2.646,1.348 4.57,3.021 5.774,5.018 1.205,1.997 1.807,4.23 1.807,6.701 0,2.903 -0.803,5.579 -2.408,8.029 -1.605,2.45 -3.85,4.308 -6.731,5.574 -2.883,1.266 -6.516,1.899 -10.9,1.899 -7.7,0 -13.031,-1.482 -15.996,-4.447 -2.965,-2.965 -4.644,-6.732 -5.035,-11.302 z"
           id="path138"
           inkscape:connector-curvature="0"
           style="fill:#38286b" /></g></g></g><g
     id="Capa_2"
     transform="translate(-285.5,-171.5625)" /></svg>