<?xml version="1.0" encoding="utf-8"?>
<!-- Generator: Adobe Illustrator 16.0.0, SVG Export Plug-In . SVG Version: 6.00 Build 0)  -->
<!DOCTYPE svg PUBLIC "-//W3C//DTD SVG 1.1//EN" "http://www.w3.org/Graphics/SVG/1.1/DTD/svg11.dtd">
<svg version="1.1" xmlns="http://www.w3.org/2000/svg" xmlns:xlink="http://www.w3.org/1999/xlink" x="0px" y="0px" width="1024px"
	 height="1024px" viewBox="0 0 1024 1024" enable-background="new 0 0 1024 1024" xml:space="preserve">
<g id="Capa_8">
	<g>
		<polygon fill="#FFFFFF" points="734.357,174.571 511.998,849.429 289.643,174.571 		"/>
	</g>
	<g>
		<polygon fill="#C12E36" points="512,320.155 733.507,175.595 654.12,418.09 		"/>
		<polygon fill="#C12E36" points="512,320.155 289.642,175.039 369.878,418.091 		"/>
		<polygon fill="none" stroke="#352566" stroke-width="6" stroke-miterlimit="10" points="734.358,174.571 511.998,849.429 
			289.642,174.571 		"/>
		<g>
			<polygon fill="#38286B" points="533.741,383.804 547.208,425.249 511.953,450.863 476.698,425.249 490.164,383.804 			"/>
			<g>
				<g>
					
						<line fill="none" stroke="#352566" stroke-width="4" stroke-miterlimit="10" x1="545.208" y1="425.249" x2="477.827" y2="594.249"/>
					<g>
						<polygon fill="#352566" points="473.111,587.25 469.952,614 486.065,592.414 						"/>
					</g>
				</g>
			</g>
			<g>
				<g>
					
						<line fill="none" stroke="#352566" stroke-width="4" stroke-miterlimit="10" x1="478.698" y1="425.268" x2="546.163" y2="594.234"/>
					<g>
						<polygon fill="#352566" points="537.925,592.404 554.048,613.981 550.876,587.232 						"/>
					</g>
				</g>
			</g>
			<g>
				<g>
					
						<line fill="none" stroke="#352566" stroke-width="4" stroke-miterlimit="10" x1="511.953" y1="449.863" x2="511.953" y2="706.737"/>
					<g>
						<polygon fill="#352566" points="504.98,701.982 511.953,728 518.926,701.982 						"/>
					</g>
				</g>
			</g>
			<polygon fill="#FFFFFF" points="502.858,425.68 497.856,410.286 510.952,400.771 524.048,410.286 519.046,425.68 			"/>
			<polygon fill="#0F5A96" points="511.953,395.248 533.753,383.789 529.587,408.062 547.224,425.252 522.853,428.794 
				511.953,450.878 501.054,428.794 476.682,425.252 494.318,408.062 490.154,383.789 			"/>
			<polygon fill="#FFFFFF" points="501.082,428.781 494.346,408.048 511.981,395.234 529.618,408.048 522.882,428.781 			"/>
		</g>
		<g>
			<path fill="#38286B" d="M429.912,191.25h13.957v26.971c0,2.675-0.417,5.2-1.25,7.576s-2.141,4.454-3.922,6.233
				s-3.649,3.029-5.604,3.749c-2.717,1.008-5.98,1.512-9.789,1.512c-2.203,0-4.606-0.154-7.21-0.463
				c-2.604-0.309-4.781-0.92-6.531-1.836c-1.75-0.915-3.351-2.217-4.802-3.903s-2.445-3.425-2.98-5.215
				c-0.864-2.88-1.297-5.432-1.297-7.653V191.25h13.958v27.613c0,2.469,0.684,4.396,2.054,5.785
				c1.369,1.389,3.268,2.082,5.697,2.082c2.409,0,4.297-0.684,5.667-2.052c1.369-1.367,2.054-3.306,2.054-5.815V191.25z"/>
		</g>
		<g>
			<path fill="#38286B" d="M461.368,191.636h18.396l7.095,27.544l7.044-27.544h18.385v45.269h-11.456v-34.523l-8.827,34.523h-10.37
				l-8.811-34.523v34.523h-11.456V191.636z"/>
		</g>
		<g>
			<path fill="#38286B" d="M529.666,221.929l13.31-0.833c0.288,2.162,0.874,3.809,1.76,4.94c1.44,1.833,3.499,2.749,6.176,2.749
				c1.996,0,3.536-0.468,4.616-1.405c1.081-0.937,1.621-2.022,1.621-3.258c0-1.173-0.515-2.223-1.544-3.149
				s-3.417-1.801-7.164-2.625c-6.135-1.379-10.509-3.211-13.123-5.496c-2.636-2.285-3.953-5.198-3.953-8.739
				c0-2.326,0.675-4.524,2.023-6.593c1.348-2.069,3.376-3.695,6.083-4.879c2.706-1.184,6.417-1.776,11.132-1.776
				c5.784,0,10.194,1.076,13.231,3.227c3.036,2.151,4.843,5.574,5.419,10.267l-13.185,0.772c-0.351-2.038-1.087-3.521-2.208-4.447
				c-1.122-0.926-2.671-1.39-4.647-1.39c-1.627,0-2.852,0.345-3.675,1.035c-0.823,0.69-1.235,1.528-1.235,2.517
				c0,0.721,0.34,1.369,1.02,1.945c0.658,0.597,2.223,1.153,4.693,1.667c6.114,1.317,10.493,2.651,13.139,3.999
				s4.57,3.021,5.774,5.018c1.205,1.997,1.807,4.23,1.807,6.701c0,2.903-0.803,5.579-2.408,8.029
				c-1.605,2.45-3.85,4.308-6.731,5.574c-2.883,1.266-6.516,1.899-10.9,1.899c-7.7,0-13.031-1.482-15.996-4.447
				C531.735,230.266,530.057,226.499,529.666,221.929z"/>
		</g>
		<g>
			<path fill="#38286B" d="M586.24,221.929l13.31-0.833c0.288,2.162,0.874,3.809,1.76,4.94c1.44,1.833,3.499,2.749,6.176,2.749
				c1.996,0,3.536-0.468,4.616-1.405c1.081-0.937,1.621-2.022,1.621-3.258c0-1.173-0.515-2.223-1.544-3.149
				s-3.417-1.801-7.164-2.625c-6.135-1.379-10.509-3.211-13.123-5.496c-2.636-2.285-3.953-5.198-3.953-8.739
				c0-2.326,0.675-4.524,2.023-6.593c1.348-2.069,3.376-3.695,6.083-4.879c2.706-1.184,6.417-1.776,11.132-1.776
				c5.784,0,10.194,1.076,13.231,3.227c3.036,2.151,4.843,5.574,5.419,10.267l-13.185,0.772c-0.351-2.038-1.087-3.521-2.208-4.447
				c-1.122-0.926-2.671-1.39-4.647-1.39c-1.627,0-2.852,0.345-3.675,1.035c-0.823,0.69-1.235,1.528-1.235,2.517
				c0,0.721,0.34,1.369,1.02,1.945c0.658,0.597,2.223,1.153,4.693,1.667c6.114,1.317,10.493,2.651,13.139,3.999
				s4.57,3.021,5.774,5.018c1.205,1.997,1.807,4.23,1.807,6.701c0,2.903-0.803,5.579-2.408,8.029
				c-1.605,2.45-3.85,4.308-6.731,5.574c-2.883,1.266-6.516,1.899-10.9,1.899c-7.7,0-13.031-1.482-15.996-4.447
				C588.31,230.266,586.631,226.499,586.24,221.929z"/>
		</g>
	</g>
</g>
<g id="Capa_8_copia">
	<g>
		<polygon fill="#FFFFFF" points="734.357,174.571 511.998,849.429 289.643,174.571 		"/>
	</g>
	<g>
		<polygon fill="#C12E36" points="512,320.155 733.507,175.595 654.12,418.09 		"/>
		<polygon fill="#C12E36" points="512,320.155 289.642,175.039 369.878,418.091 		"/>
		<polygon fill="none" stroke="#352566" stroke-width="6" stroke-miterlimit="10" points="734.358,174.571 511.998,849.429 
			289.642,174.571 		"/>
		<g>
			<polygon fill="none" stroke="#352566" stroke-width="4" stroke-miterlimit="10" points="533.741,383.804 547.208,425.249 
				511.953,450.863 476.698,425.249 490.164,383.804 			"/>
			<g>
				<g>
					
						<line fill="none" stroke="#352566" stroke-width="4" stroke-miterlimit="10" x1="547.703" y1="425.249" x2="477.956" y2="596.914"/>
					<g>
						<polygon fill="#352566" points="473.286,589.885 469.952,616.613 486.206,595.133 						"/>
					</g>
				</g>
			</g>
			<g>
				<g>
					
						<line fill="none" stroke="#352566" stroke-width="4" stroke-miterlimit="10" x1="476.095" y1="425.249" x2="546.023" y2="596.84"/>
					<g>
						<polygon fill="#352566" points="537.771,595.067 554.049,616.53 550.686,589.805 						"/>
					</g>
				</g>
			</g>
			<g>
				<g>
					<line fill="none" stroke="#352566" stroke-width="4" stroke-miterlimit="10" x1="512" y1="450.27" x2="512" y2="711.737"/>
					<g>
						<polygon fill="#352566" points="505.027,706.982 512,733 518.973,706.982 						"/>
					</g>
				</g>
			</g>
			<g>
				<polygon fill="none" stroke="#352566" stroke-width="4" stroke-miterlimit="10" points="493.916,388.945 541.26,423.343 
					482.74,423.343 530.082,388.945 512,444.602 				"/>
			</g>
		</g>
		<g>
			<path fill="#38286B" d="M429.912,191.25h13.957v26.971c0,2.675-0.417,5.2-1.25,7.576s-2.141,4.454-3.922,6.233
				s-3.649,3.029-5.604,3.749c-2.717,1.008-5.98,1.512-9.789,1.512c-2.203,0-4.606-0.154-7.21-0.463
				c-2.604-0.309-4.781-0.92-6.531-1.836c-1.75-0.915-3.351-2.217-4.802-3.903s-2.445-3.425-2.98-5.215
				c-0.864-2.88-1.297-5.432-1.297-7.653V191.25h13.958v27.613c0,2.469,0.684,4.396,2.054,5.785
				c1.369,1.389,3.268,2.082,5.697,2.082c2.409,0,4.297-0.684,5.667-2.052c1.369-1.367,2.054-3.306,2.054-5.815V191.25z"/>
		</g>
		<g>
			<path fill="#38286B" d="M461.368,191.636h18.396l7.095,27.544l7.044-27.544h18.385v45.269h-11.456v-34.523l-8.827,34.523h-10.37
				l-8.811-34.523v34.523h-11.456V191.636z"/>
		</g>
		<g>
			<path fill="#38286B" d="M529.666,221.929l13.31-0.833c0.288,2.162,0.874,3.809,1.76,4.94c1.44,1.833,3.499,2.749,6.176,2.749
				c1.996,0,3.536-0.468,4.616-1.405c1.081-0.937,1.621-2.022,1.621-3.258c0-1.173-0.515-2.223-1.544-3.149
				s-3.417-1.801-7.164-2.625c-6.135-1.379-10.509-3.211-13.123-5.496c-2.636-2.285-3.953-5.198-3.953-8.739
				c0-2.326,0.675-4.524,2.023-6.593c1.348-2.069,3.376-3.695,6.083-4.879c2.706-1.184,6.417-1.776,11.132-1.776
				c5.784,0,10.194,1.076,13.231,3.227c3.036,2.151,4.843,5.574,5.419,10.267l-13.185,0.772c-0.351-2.038-1.087-3.521-2.208-4.447
				c-1.122-0.926-2.671-1.39-4.647-1.39c-1.627,0-2.852,0.345-3.675,1.035c-0.823,0.69-1.235,1.528-1.235,2.517
				c0,0.721,0.34,1.369,1.02,1.945c0.658,0.597,2.223,1.153,4.693,1.667c6.114,1.317,10.493,2.651,13.139,3.999
				s4.57,3.021,5.774,5.018c1.205,1.997,1.807,4.23,1.807,6.701c0,2.903-0.803,5.579-2.408,8.029
				c-1.605,2.45-3.85,4.308-6.731,5.574c-2.883,1.266-6.516,1.899-10.9,1.899c-7.7,0-13.031-1.482-15.996-4.447
				C531.735,230.266,530.057,226.499,529.666,221.929z"/>
		</g>
		<g>
			<path fill="#38286B" d="M586.24,221.929l13.31-0.833c0.288,2.162,0.874,3.809,1.76,4.94c1.44,1.833,3.499,2.749,6.176,2.749
				c1.996,0,3.536-0.468,4.616-1.405c1.081-0.937,1.621-2.022,1.621-3.258c0-1.173-0.515-2.223-1.544-3.149
				s-3.417-1.801-7.164-2.625c-6.135-1.379-10.509-3.211-13.123-5.496c-2.636-2.285-3.953-5.198-3.953-8.739
				c0-2.326,0.675-4.524,2.023-6.593c1.348-2.069,3.376-3.695,6.083-4.879c2.706-1.184,6.417-1.776,11.132-1.776
				c5.784,0,10.194,1.076,13.231,3.227c3.036,2.151,4.843,5.574,5.419,10.267l-13.185,0.772c-0.351-2.038-1.087-3.521-2.208-4.447
				c-1.122-0.926-2.671-1.39-4.647-1.39c-1.627,0-2.852,0.345-3.675,1.035c-0.823,0.69-1.235,1.528-1.235,2.517
				c0,0.721,0.34,1.369,1.02,1.945c0.658,0.597,2.223,1.153,4.693,1.667c6.114,1.317,10.493,2.651,13.139,3.999
				s4.57,3.021,5.774,5.018c1.205,1.997,1.807,4.23,1.807,6.701c0,2.903-0.803,5.579-2.408,8.029
				c-1.605,2.45-3.85,4.308-6.731,5.574c-2.883,1.266-6.516,1.899-10.9,1.899c-7.7,0-13.031-1.482-15.996-4.447
				C588.31,230.266,586.631,226.499,586.24,221.929z"/>
		</g>
	</g>
</g>
<g id="Capa_2">
</g>
</svg>
