<?xml version="1.0" encoding="UTF-8" standalone="no"?>
<!-- Created with Inkscape (http://www.inkscape.org/) -->

<svg
   xmlns:dc="http://purl.org/dc/elements/1.1/"
   xmlns:cc="http://creativecommons.org/ns#"
   xmlns:rdf="http://www.w3.org/1999/02/22-rdf-syntax-ns#"
   xmlns:svg="http://www.w3.org/2000/svg"
   xmlns="http://www.w3.org/2000/svg"
   xmlns:sodipodi="http://sodipodi.sourceforge.net/DTD/sodipodi-0.dtd"
   xmlns:inkscape="http://www.inkscape.org/namespaces/inkscape"
   width="250"
   height="280.625"
   id="svg3852"
   version="1.1"
   inkscape:version="0.48.5 r10040"
   sodipodi:docname="fach.svg">
  <defs
     id="defs3854" />
  <sodipodi:namedview
     id="base"
     pagecolor="#ffffff"
     bordercolor="#666666"
     borderopacity="1.0"
     inkscape:pageopacity="0.0"
     inkscape:pageshadow="2"
     inkscape:zoom="1"
     inkscape:cx="186.15625"
     inkscape:cy="24.457406"
     inkscape:document-units="px"
     inkscape:current-layer="layer1"
     showgrid="false"
     fit-margin-top="0"
     fit-margin-left="0"
     fit-margin-right="0"
     fit-margin-bottom="0"
     inkscape:window-width="1364"
     inkscape:window-height="748"
     inkscape:window-x="0"
     inkscape:window-y="18"
     inkscape:window-maximized="1" />
  <metadata
     id="metadata3857">
    <rdf:RDF>
      <cc:Work
         rdf:about="">
        <dc:format>image/svg+xml</dc:format>
        <dc:type
           rdf:resource="http://purl.org/dc/dcmitype/StillImage" />
        <dc:title></dc:title>
      </cc:Work>
    </rdf:RDF>
  </metadata>
  <g
     inkscape:label="Layer 1"
     inkscape:groupmode="layer"
     id="layer1"
     transform="translate(-133.34375,-490.25)">
    <path
       style="fill:none;stroke:#023175;stroke-width:3.88501859;stroke-linecap:butt;stroke-linejoin:miter;stroke-miterlimit:4;stroke-opacity:1;stroke-dasharray:none"
       d="m 152.76116,576.35378 166.18106,0 0,26.81552 -166.18106,0 z"
       id="path3015"
       inkscape:connector-curvature="0"
       sodipodi:nodetypes="ccccc"
       inkscape:export-filename="/home/wil/Programming/logos/logos/fach/1024x.png"
       inkscape:export-xdpi="368.64001"
       inkscape:export-ydpi="368.64001" />
    <path
       style="fill:#ffffff;stroke:#ffffff;stroke-width:5.32401562;stroke-linecap:butt;stroke-linejoin:miter;stroke-miterlimit:4;stroke-opacity:1;stroke-dasharray:none"
       d="m 153.00224,602.07066 164.00938,0"
       id="path3823"
       inkscape:connector-curvature="0"
       inkscape:export-filename="/home/wil/Programming/logos/logos/fach/1024x.png"
       inkscape:export-xdpi="368.64001"
       inkscape:export-ydpi="368.64001" />
    <path
       style="fill:#ffffff;stroke:#023175;stroke-width:3.94162011;stroke-linecap:butt;stroke-linejoin:miter;stroke-miterlimit:4;stroke-opacity:1;stroke-dasharray:none"
       d="m 152.75113,606.87434 0,23.88269 135.47486,1.25696 27.63368,-25.03988 z"
       id="path3017"
       inkscape:connector-curvature="0"
       sodipodi:nodetypes="ccccc"
       inkscape:export-filename="/home/wil/Programming/logos/logos/fach/1024x.png"
       inkscape:export-xdpi="368.64001"
       inkscape:export-ydpi="368.64001" />
    <path
       style="fill:#023175;fill-opacity:1;stroke:none"
       d="m 152.75113,511.9023 0,58.65922 173.18435,0 0,36.31282 -27.3743,25.13965 16.55901,88.38163 -56.06669,25.34045 -105.94448,-47.68678 -0.35789,-127.48777 0,131.28491 106.14525,50.27931 106.14526,-50.27931 0,-189.94413 -212.29051,0 z"
       id="path3818"
       inkscape:connector-curvature="0"
       inkscape:export-filename="/home/wil/Programming/logos/logos/fach/1024x.png"
       inkscape:export-xdpi="368.64001"
       inkscape:export-ydpi="368.64001" />
    <path
       style="fill:#ffffff;fill-opacity:1;stroke:none"
       d="m 191.85727,562.18167 11.17319,0 5.58659,-11.17329 16.75978,0 5.58658,11.17329 11.17319,0 -19.55307,-39.10614 -11.17319,0 z"
       id="path3021"
       inkscape:connector-curvature="0"
       sodipodi:nodetypes="ccccccccc"
       inkscape:export-filename="/home/wil/Programming/logos/logos/fach/1024x.png"
       inkscape:export-xdpi="368.64001"
       inkscape:export-ydpi="368.64001" />
    <path
       style="fill:none;stroke:#000000;stroke-width:0.2793296px;stroke-linecap:butt;stroke-linejoin:miter;stroke-opacity:1"
       d="m 315.12143,720.40194 -16.56025,-88.38795 27.3743,-25.13965 0,-36.31282 -173.18435,0 0.35914,127.49396 105.94572,47.68566 z"
       id="path3013"
       inkscape:connector-curvature="0"
       sodipodi:nodetypes="cccccccc"
       inkscape:export-filename="/home/wil/Programming/logos/logos/fach/1024x.png"
       inkscape:export-xdpi="368.64001"
       inkscape:export-ydpi="368.64001" />
    <path
       style="fill:#ffffff;stroke:none"
       d="m 163.92431,523.07553 30.72626,0 0,8.37985 -22.34637,0 0,8.37984 19.55307,0 0,5.58664 -19.55307,0 0,16.75981 -8.37989,0 z"
       id="path3019"
       inkscape:connector-curvature="0"
       inkscape:export-filename="/home/wil/Programming/logos/logos/fach/1024x.png"
       inkscape:export-xdpi="368.64001"
       inkscape:export-ydpi="368.64001" />
    <path
       style="fill:#023175;fill-opacity:1;stroke:none"
       d="m 216.99694,534.2487 -5.5866,11.17316 11.17319,0 z"
       id="path3023"
       inkscape:connector-curvature="0"
       inkscape:export-filename="/home/wil/Programming/logos/logos/fach/1024x.png"
       inkscape:export-xdpi="368.64001"
       inkscape:export-ydpi="368.64001" />
    <path
       sodipodi:nodetypes="cssaccsssc"
       inkscape:connector-curvature="0"
       id="path3032"
       style="font-size:223.72932434px;font-style:normal;font-weight:bold;line-height:125%;letter-spacing:0px;word-spacing:0px;fill:#ffffff;fill-opacity:1;stroke:none;font-family:Sans;-inkscape-font-specification:Sans Bold"
       d="m 284.33568,549.59334 c -5.0739,15.83064 -26.41601,14.20862 -32.07909,10.07143 -4.80611,-3.51105 -9.20222,-9.57231 -9.20222,-16.95985 0,-7.40822 5.25708,-15.54432 12.05563,-17.87219 9.63421,-3.299 24.9636,-2.84147 29.02272,9.53889 l -9.33598,1.82665 c -2.84139,-5.68283 -7.15411,-8.18092 -15.72567,-5.19782 -3.82572,1.33148 -6.27047,6.59949 -5.89525,11.70447 0.29106,3.96004 1.99404,8.83378 5.48934,10.4558 13.4075,6.22157 16.74045,-5.79993 16.74045,-5.79993"
       inkscape:export-filename="/home/wil/Programming/logos/logos/fach/1024x.png"
       inkscape:export-xdpi="368.64001"
       inkscape:export-ydpi="368.64001" />
    <path
       inkscape:connector-curvature="0"
       id="path3802"
       d="m 289.62264,523.07553 8.37988,0 0,16.75969 19.55308,0 0,-16.75969 8.37988,0 0,39.10614 -8.37988,0 0,-16.75981 -19.55308,0 0,16.75981 -8.37988,0 z"
       style="font-size:223.72932434px;font-style:normal;font-weight:normal;line-height:125%;letter-spacing:0px;word-spacing:0px;fill:#ffffff;fill-opacity:1;stroke:none;font-family:Sans"
       inkscape:export-filename="/home/wil/Programming/logos/logos/fach/1024x.png"
       inkscape:export-xdpi="368.64001"
       inkscape:export-ydpi="368.64001" />
    <path
       style="fill:none;stroke:#294670;stroke-width:2.7932961;stroke-linecap:butt;stroke-linejoin:miter;stroke-miterlimit:4;stroke-opacity:1;stroke-dasharray:none"
       d="m 306.55186,726.61954 c 0,0 -8.50068,-57.96815 -13.71267,-75.05242 -0.81309,-2.6652 -2.73668,-6.95873 -5.5866,-6.57424 -5.14144,0.69384 -7.02893,8.9395 -6.57418,14.10761 1.20901,13.73958 7.42067,76.15353 7.42067,76.15353 z"
       id="path3806"
       inkscape:connector-curvature="0"
       sodipodi:nodetypes="csascc"
       inkscape:export-filename="/home/wil/Programming/logos/logos/fach/1024x.png"
       inkscape:export-xdpi="368.64001"
       inkscape:export-ydpi="368.64001" />
    <path
       style="fill:none;stroke:#294670;stroke-width:2.7932961;stroke-linecap:butt;stroke-linejoin:miter;stroke-miterlimit:4;stroke-opacity:1;stroke-dasharray:none"
       d="m 281.94816,737.68006 c 0,0 -4.30752,-62.03058 -6.85633,-80.35695 -0.76975,-5.53453 -7.22012,-12.94225 -13.26107,-12.44288 -6.1921,0.51175 -11.79639,9.26965 -11.31428,14.81297 1.88957,21.72577 6.15093,89.04725 6.15093,89.04725 z"
       id="path3808"
       inkscape:connector-curvature="0"
       sodipodi:nodetypes="csascc"
       inkscape:export-filename="/home/wil/Programming/logos/logos/fach/1024x.png"
       inkscape:export-xdpi="368.64001"
       inkscape:export-ydpi="368.64001" />
    <path
       style="fill:none;stroke:#294670;stroke-width:2.7932961;stroke-linecap:butt;stroke-linejoin:miter;stroke-miterlimit:4;stroke-opacity:1;stroke-dasharray:none"
       d="m 251.0324,745.96891 c 0,0 -2.84793,-54.27265 -5.30442,-86.62047 -0.53471,-7.0413 -7.95708,-14.83587 -17.84003,-14.7788 -6.91098,0.0396 -17.03921,4.94331 -17.67473,14.7788 -1.35465,20.96446 -2.99282,65.42291 -2.99282,65.42291 z"
       id="path3810"
       inkscape:connector-curvature="0"
       sodipodi:nodetypes="cssscc"
       inkscape:export-filename="/home/wil/Programming/logos/logos/fach/1024x.png"
       inkscape:export-xdpi="368.64001"
       inkscape:export-ydpi="368.64001" />
    <path
       style="fill:none;stroke:#294670;stroke-width:2.7932961;stroke-linecap:butt;stroke-linejoin:miter;stroke-miterlimit:4;stroke-opacity:1;stroke-dasharray:none"
       d="m 202.88938,721.59725 c 0,0 1.43818,-40.90827 1.9468,-61.90405 0.15028,-6.20374 -4.13865,-15.52414 -12.7251,-15.23621 -5.54998,0.18606 -11.32626,7.06841 -11.70915,11.85018 -1.33481,16.66956 -1.38248,53.80645 -1.38248,53.80645 z"
       id="path3812"
       inkscape:connector-curvature="0"
       sodipodi:nodetypes="cssscc"
       inkscape:export-filename="/home/wil/Programming/logos/logos/fach/1024x.png"
       inkscape:export-xdpi="368.64001"
       inkscape:export-ydpi="368.64001" />
    <path
       style="fill:none;stroke:#294670;stroke-width:2.7932961;stroke-linecap:butt;stroke-linejoin:miter;stroke-miterlimit:4;stroke-opacity:1;stroke-dasharray:none"
       d="m 174.53317,708.73114 c 0,0 0.48911,-31.13469 0.42325,-50.27931 -0.0194,-5.64309 -1.52356,-13.71272 -7.11015,-13.71272 -5.58659,0 -7.1905,6.28061 -7.81555,12.55565 -1.3984,14.03891 -0.28217,44.4389 -0.28217,44.4389 z"
       id="path3814"
       inkscape:connector-curvature="0"
       sodipodi:nodetypes="cssscc"
       inkscape:export-filename="/home/wil/Programming/logos/logos/fach/1024x.png"
       inkscape:export-xdpi="368.64001"
       inkscape:export-ydpi="368.64001" />
    <path
       style="fill:none;stroke:#0a336c;stroke-width:4.2513237;stroke-linecap:butt;stroke-linejoin:miter;stroke-miterlimit:4;stroke-opacity:0.99607843;stroke-dasharray:none"
       d="m 135.46338,492.37992 245.74868,0 0,218.61051 -122.87433,57.52907 -122.87435,-57.52907 z"
       id="path3009"
       inkscape:connector-curvature="0"
       sodipodi:nodetypes="cccccc"
       inkscape:export-filename="/home/wil/Programming/logos/logos/fach/1024x.png"
       inkscape:export-xdpi="368.64001"
       inkscape:export-ydpi="368.64001" />
    <path
       style="fill:none;stroke:#fd0134;stroke-width:6.1452508;stroke-linecap:butt;stroke-linejoin:miter;stroke-miterlimit:4;stroke-opacity:1;stroke-dasharray:none"
       d="m 152.19247,509.10901 212.2905,0 0,189.9441 -106.14524,50.2793 -106.14526,-50.2793 z"
       id="path3011"
       inkscape:connector-curvature="0"
       inkscape:export-filename="/home/wil/Programming/logos/logos/fach/1024x.png"
       inkscape:export-xdpi="368.64001"
       inkscape:export-ydpi="368.64001" />
  </g>
</svg>
